<svg width="12" height="7" viewBox="0 0 12 7" fill="none" xmlns="http://www.w3.org/2000/svg">
<path d="M8.33117 0.0961202L8.14177 0.289441C8.01625 0.417574 8.01625 0.625332 8.14177 0.753492L10.3898 3.03517H0.321429C0.14392 3.03517 0 3.18208 0 3.36329V3.63673C0 3.81794 0.14392 3.96485 0.321429 3.96485H10.3898L8.14177 6.24653C8.01625 6.37466 8.01625 6.58242 8.14177 6.71058L8.33117 6.9039C8.45669 7.03203 8.66021 7.03203 8.78572 6.9039L11.9059 3.73202C12.0314 3.60389 12.0314 3.39613 11.9059 3.26797L8.78572 0.0961202C8.66021 -0.0320401 8.45669 -0.0320401 8.33117 0.0961202Z" fill="white"/>
</svg>
