<svg width="24" height="24" viewBox="0 0 24 24" fill="none" xmlns="http://www.w3.org/2000/svg">
<path d="M14.546 12.0004L22.2382 4.30814L23.8245 2.72183C24.0585 2.48783 24.0585 2.10757 23.8245 1.87356L22.1272 0.176256C21.8932 -0.0577516 21.5129 -0.0577516 21.2789 0.176256L12.0004 9.45479L2.72184 0.175505C2.48783 -0.0585018 2.10757 -0.0585018 1.87356 0.175505L0.175505 1.87281C-0.0585018 2.10682 -0.0585018 2.48708 0.175505 2.72109L9.45479 12.0004L0.175505 21.2789C-0.0585018 21.5129 -0.0585018 21.8932 0.175505 22.1272L1.87281 23.8245C2.10682 24.0585 2.48708 24.0585 2.72108 23.8245L12.0004 14.546L19.6926 22.2382L21.2789 23.8245C21.5129 24.0585 21.8932 24.0585 22.1272 23.8245L23.8245 22.1272C24.0585 21.8932 24.0585 21.5129 23.8245 21.2789L14.546 12.0004Z" fill="#BDCBDA"/>
</svg>
